<?xml version="1.0" standalone="no"?>
<!DOCTYPE svg PUBLIC "-//W3C//DTD SVG 20010904//EN"
 "http://www.w3.org/TR/2001/REC-SVG-20010904/DTD/svg10.dtd">
<svg version="1.0" xmlns="http://www.w3.org/2000/svg"
 width="270.000000pt" height="270.000000pt" viewBox="0 0 270.000000 270.000000"
 preserveAspectRatio="xMidYMid meet">
<metadata>
Created by potrace 1.14, written by Peter Selinger 2001-2017
</metadata>
<g transform="translate(0.000000,270.000000) scale(0.100000,-0.100000)"
fill="#000000" stroke="none">
<path d="M1375 2678 c-46 -11 -60 -18 -140 -72 -85 -57 -131 -110 -169 -195
-36 -83 -38 -110 -15 -311 11 -104 13 -112 24 -130 13 -22 23 20 24 106 1 63
4 75 31 109 17 21 30 46 30 56 0 13 7 19 23 19 77 -1 100 6 127 38 28 34 48
40 68 20 10 -10 14 -8 18 10 4 12 8 22 11 22 9 0 52 -56 53 -67 0 -7 14 -22
30 -35 17 -12 30 -25 30 -29 0 -13 -44 -18 -52 -6 -10 16 -150 16 -216 0 -63
-15 -120 -55 -128 -90 -8 -31 1 -40 23 -22 15 12 16 12 10 -4 -13 -35 -19 -67
-13 -67 4 0 20 7 37 15 21 11 28 12 27 3 -5 -20 33 -21 112 -2 78 19 135 48
124 65 -18 29 63 57 111 39 20 -8 26 -15 22 -30 -9 -33 48 -79 108 -87 58 -7
60 -7 60 10 0 12 17 13 68 3 15 -3 27 -1 27 4 0 10 -57 48 -102 68 -28 11 -36
26 -20 36 14 9 96 -16 133 -41 41 -27 55 -51 64 -110 4 -24 10 -43 13 -43 16
0 34 93 39 205 6 132 0 161 -62 284 -42 83 -130 181 -163 181 -12 0 -24 5 -27
10 -3 6 -21 10 -40 10 -18 0 -60 6 -92 14 -81 20 -161 25 -208 14z m423 -340
c8 -24 27 -70 43 -103 16 -33 29 -65 29 -72 0 -6 -22 3 -50 22 -27 18 -55 35
-61 37 -17 6 -19 104 -2 101 7 -2 10 4 7 12 -7 17 2 45 13 45 5 0 14 -19 21
-42z m-148 -59 c0 -6 8 -18 17 -27 16 -16 14 -17 -21 -20 -50 -4 -66 11 -40
37 21 22 44 27 44 10z m-414 -154 c-27 -8 -53 -20 -57 -27 -7 -10 -9 -10 -9 3
0 18 43 37 85 37 24 0 20 -3 -19 -13z"/>
<path d="M1000 1919 c0 -68 11 -70 30 -5 13 47 8 66 -16 66 -11 0 -14 -15 -14
-61z"/>
<path d="M2005 1943 c4 -10 10 -28 12 -41 9 -41 26 -38 18 4 -8 45 -12 54 -27
54 -6 0 -7 -7 -3 -17z"/>
<path d="M1385 1910 c-14 -16 -15 -22 -5 -35 7 -8 10 -23 7 -34 -4 -17 4 -19
102 -25 174 -11 181 -13 228 -64 46 -50 58 -49 69 4 5 24 -1 39 -28 75 -19 24
-42 45 -52 47 -16 3 -16 2 -2 -25 8 -16 22 -36 31 -43 9 -7 21 -22 26 -32 7
-14 -2 -11 -38 12 -26 16 -52 30 -58 30 -7 0 -33 11 -59 25 -26 14 -56 25 -66
25 -10 0 -25 8 -32 18 -33 43 -93 55 -123 22z"/>
<path d="M1520 1906 c0 -11 9 -16 28 -16 15 0 34 -6 41 -12 10 -11 12 -8 9 12
-2 21 -9 26 -40 28 -29 2 -38 0 -38 -12z"/>
<path d="M1046 1889 c-9 -13 -16 -34 -16 -46 0 -23 35 -63 54 -63 6 0 0 9 -13
19 l-24 18 24 32 c21 28 22 33 7 47 -14 14 -17 14 -32 -7z"/>
<path d="M1282 1883 c-11 -10 -32 -35 -45 -55 -22 -33 -24 -42 -15 -78 9 -35
14 -40 39 -40 16 0 29 5 29 10 0 6 11 10 24 10 13 0 43 7 67 15 70 25 189 30
248 10 67 -22 101 -15 47 9 -64 28 -226 40 -298 21 -75 -19 -75 -19 -53 5 22
24 8 26 -40 6 -32 -14 -50 -6 -25 9 13 8 53 85 47 91 -2 3 -13 -3 -25 -13z"/>
<path d="M1940 1855 c0 -8 5 -15 10 -15 6 0 10 7 10 15 0 8 -4 15 -10 15 -5 0
-10 -7 -10 -15z"/>
<path d="M1086 1741 c-4 -7 -5 -15 -2 -18 9 -9 19 4 14 18 -4 11 -6 11 -12 0z"/>
<path d="M1451 1700 c-35 -8 -35 -23 0 -39 35 -15 36 -42 0 -51 -21 -5 -22 -7
-7 -19 17 -14 22 -41 8 -41 -5 0 -15 -11 -22 -25 -21 -39 -65 -56 -122 -49
-34 5 -48 3 -48 -5 0 -7 4 -10 9 -7 12 8 34 -21 26 -34 -3 -6 -11 -7 -17 -4
-6 4 -9 3 -6 -2 2 -5 12 -26 21 -47 12 -26 29 -43 52 -53 18 -7 36 -22 39 -31
7 -21 73 -93 84 -93 14 0 52 45 52 61 0 8 5 20 11 26 8 8 8 20 0 46 -16 47 -8
61 44 75 58 15 61 42 7 76 -35 22 -40 31 -53 88 -8 34 -13 73 -11 84 3 28 -35
53 -67 44z"/>
<path d="M1190 1304 c0 -26 63 -114 151 -210 120 -131 114 -123 93 -118 -41 9
-244 -96 -244 -126 0 -6 12 -3 28 8 15 10 46 22 70 26 39 6 43 5 40 -13 -6
-38 17 -22 25 17 6 33 14 42 47 57 22 10 43 15 47 12 9 -10 178 81 226 121 55
45 117 128 117 156 0 19 -2 18 -19 -9 -10 -16 -41 -50 -67 -73 -27 -24 -59
-52 -70 -63 -31 -27 -58 -35 -104 -31 -37 4 -40 7 -40 33 0 18 -5 29 -14 29
-7 0 -30 14 -51 30 -22 17 -50 30 -66 30 -34 0 -99 37 -99 56 0 8 -4 13 -10
12 -5 -2 -21 15 -34 37 -20 32 -25 36 -26 19z"/>
<path d="M1068 1201 c-21 -24 -39 -71 -32 -82 3 -6 0 -17 -8 -26 -10 -13 -10
-17 0 -20 22 -8 6 -128 -26 -191 -29 -54 -32 -63 -32 -78 0 -14 3 -14 15 -4
14 12 15 -6 12 -164 -2 -97 -1 -179 3 -181 12 -7 5 -137 -9 -162 -10 -19 -9
-23 4 -23 12 0 15 -13 15 -58 0 -33 3 -93 6 -135 l7 -77 62 0 62 0 -4 78 c-2
42 -9 98 -14 123 -7 30 -7 86 0 170 6 68 13 185 17 259 3 74 10 152 14 173 7
31 2 56 -22 125 -31 91 -40 177 -25 243 8 32 6 37 -12 42 -12 3 -25 -2 -33
-12z"/>
<path d="M1447 914 c3 -8 12 -13 20 -10 8 3 24 1 36 -5 22 -12 22 -12 3 10
-23 25 -69 30 -59 5z"/>
<path d="M1522 856 c-12 -26 0 -46 28 -46 8 0 26 -7 38 -16 12 -8 27 -12 34
-8 7 4 8 3 4 -4 -4 -7 -1 -12 8 -12 9 0 16 -7 16 -15 0 -8 9 -15 20 -15 41 0
29 12 -126 131 -7 6 -15 0 -22 -15z"/>
<path d="M965 670 c-3 -5 -1 -10 4 -10 6 0 11 5 11 10 0 6 -2 10 -4 10 -3 0
-8 -4 -11 -10z"/>
<path d="M512 552 c-15 -28 -21 -49 -16 -67 10 -41 -5 -94 -35 -121 -21 -18
-30 -37 -33 -68 -3 -28 -16 -58 -35 -82 -16 -22 -42 -56 -57 -77 -26 -35 -29
-37 -69 -31 -23 4 -48 11 -54 16 -24 19 -43 1 -37 -34 4 -18 11 -37 15 -42 5
-6 9 -18 9 -28 0 -16 10 -18 99 -18 l99 0 10 43 c6 23 18 67 27 97 9 30 23 78
31 105 31 105 74 301 72 324 -3 22 -5 20 -26 -17z"/>
<path d="M2300 101 c0 -38 -3 -76 -6 -85 -4 -11 0 -16 14 -16 17 0 21 9 27 62
5 43 4 63 -4 66 -6 2 -11 10 -11 17 0 8 -4 17 -10 20 -6 4 -10 -20 -10 -64z"/>
</g>
</svg>
